<svg width="25" height="25" viewBox="0 0 25 25" fill="none" xmlns="http://www.w3.org/2000/svg">
<g clip-path="url(#clip0_3359_62)">
<mask id="mask0_3359_62" style="mask-type:luminance" maskUnits="userSpaceOnUse" x="0" y="0" width="25" height="25">
<path d="M25 0H0V25H25V0Z" fill="white"/>
</mask>
<g mask="url(#mask0_3359_62)">
<path d="M24.6235 15.524C22.9539 22.2205 16.1711 26.2955 9.47386 24.626C2.77972 22.9564 -1.29567 16.1736 0.374246 9.47757C2.043 2.78031 8.82542 -1.29547 15.5207 0.374059C22.2176 2.04359 26.293 8.82718 24.6235 15.524Z" fill="#635328"/>
<path d="M18.0103 10.7191C18.2587 9.05586 16.9923 8.16172 15.2606 7.56523L15.8224 5.31211L14.4505 4.97031L13.9036 7.16406C13.5435 7.07422 13.1731 6.98945 12.8052 6.90547L13.356 4.69727L11.9853 4.35547L11.4231 6.60781C11.1247 6.53984 10.8317 6.47266 10.5474 6.40195L10.5489 6.39492L8.65752 5.92266L8.29268 7.3875C8.29268 7.3875 9.31025 7.6207 9.28877 7.63516C9.84424 7.77383 9.94502 8.14141 9.92783 8.43281L9.28799 10.9996C9.32627 11.0094 9.37588 11.0234 9.43057 11.0453L9.28603 11.0094L8.38877 14.6051C8.3208 14.7738 8.14854 15.027 7.76025 14.9309C7.77393 14.9508 6.76338 14.682 6.76338 14.682L6.08252 16.2523L7.86768 16.6973C8.19971 16.7805 8.5251 16.8676 8.84502 16.9496L8.27744 19.2289L9.64736 19.5707L10.2099 17.316C10.5837 17.4176 10.947 17.5113 11.3024 17.5996L10.7423 19.8438L12.1138 20.1855L12.6813 17.9109C15.02 18.3535 16.779 18.175 17.5185 16.0602C18.1149 14.357 17.4892 13.3746 16.2587 12.7336C17.1548 12.5262 17.8302 11.9367 18.0103 10.7191ZM14.8763 15.1133C14.4521 16.8164 11.5849 15.8961 10.6548 15.6648L11.4079 12.6457C12.3376 12.8777 15.3181 13.3371 14.8763 15.1133ZM15.3001 10.6945C14.9134 12.2438 12.5267 11.4566 11.7521 11.2637L12.4349 8.52539C13.2095 8.71836 15.7032 9.07852 15.3001 10.6945Z" fill="#CFAC4A"/>
</g>
</g>
<defs>
<clipPath id="clip0_3359_62">
<rect width="25" height="25" fill="white"/>
</clipPath>
</defs>
</svg>
