<svg width="1920" height="966" viewBox="0 0 1920 966" fill="none" xmlns="http://www.w3.org/2000/svg">
<path d="M1961.37 -49.2977C1961.37 -49.2977 1915.66 116.081 1836.17 190.352C1735.41 284.507 1632.98 285.38 1491.83 314.971C1306.55 353.811 1189.2 285.426 1004.6 326.777C746.847 384.517 771.746 747.567 520.967 826.365C286.499 900.038 42.651 913.574 -215.636 781.605C-353.668 711.078 -576.9 575.695 -576.9 575.695" stroke="url(#paint0_linear_154_756)" stroke-opacity="0.25" stroke-width="0.916977"/>
<path d="M1987.66 -14.9728C1987.66 -14.9728 1958.31 91.309 1907.27 139.039C1842.57 199.548 1776.79 200.108 1686.15 219.123C1567.18 244.082 1491.82 200.132 1373.28 226.705C1207.76 263.808 1223.75 497.128 1062.71 547.765C912.15 595.109 638.602 383.355 487.612 487.29C375.567 564.416 308.328 872.171 308.328 872.171" stroke="url(#paint1_linear_154_756)" stroke-opacity="0.25" stroke-width="0.916977"/>
<path d="M1963.19 -31.1471C1963.19 -31.1471 1918.26 131.417 1840.13 204.425C1741.08 296.977 1640.4 297.836 1501.65 326.923C1319.53 365.102 1204.18 297.88 1022.73 338.528C769.366 395.285 793.84 752.158 547.335 829.615C316.862 902.034 71.6001 904.842 -181.577 784.106C-318.372 720.61 -534.176 606.329 -534.176 606.329" stroke="url(#paint2_linear_154_756)" stroke-opacity="0.25" stroke-width="0.916977"/>
<path d="M1965.01 -13.2149C1965.01 -13.2149 1920.86 146.535 1844.09 218.279C1746.76 309.229 1647.82 310.073 1511.48 338.657C1332.52 376.175 1219.17 310.116 1040.86 350.06C791.888 405.834 815.938 756.529 573.707 832.646C347.229 903.811 100.553 895.891 -147.515 786.388C-283.072 729.924 -491.448 636.745 -491.448 636.745" stroke="url(#paint3_linear_154_756)" stroke-opacity="0.25" stroke-width="0.916977"/>
<path d="M1966.83 4.46847C1966.83 4.46847 1923.46 161.404 1848.04 231.884C1752.42 321.233 1655.23 322.061 1521.29 350.141C1345.49 386.998 1234.14 322.104 1058.98 361.344C814.397 416.135 838.024 760.653 600.066 835.428C377.584 905.34 129.493 886.691 -113.466 788.422C-247.785 738.989 -448.733 666.912 -448.733 666.912" stroke="url(#paint4_linear_154_756)" stroke-opacity="0.25" stroke-width="0.916977"/>
<path d="M1968.63 21.8811C1968.63 21.8811 1926.03 176.003 1851.97 245.219C1758.07 332.965 1662.63 333.779 1531.09 361.355C1358.45 397.551 1249.1 333.82 1077.08 372.357C836.892 426.165 860.095 764.505 626.41 837.939C407.923 906.597 158.418 877.221 -79.431 790.185C-212.513 747.783 -406.032 696.808 -406.032 696.808" stroke="url(#paint5_linear_154_756)" stroke-opacity="0.25" stroke-width="0.916977"/>
<path d="M1970.42 39.0114C1970.42 39.0114 1928.61 190.319 1855.9 258.271C1763.72 344.415 1670.02 345.214 1540.89 372.287C1371.4 407.822 1264.05 345.254 1095.18 383.087C859.385 435.913 882.164 768.075 652.752 840.168C438.261 907.573 187.341 867.468 -45.3985 791.666C-177.243 756.295 -363.334 726.421 -363.334 726.421" stroke="url(#paint6_linear_154_756)" stroke-opacity="0.25" stroke-width="0.916977"/>
<path d="M1972.21 55.8509C1972.21 55.8509 1931.17 204.344 1859.81 271.033C1769.35 355.574 1677.4 356.358 1550.68 382.928C1384.35 417.802 1278.99 356.398 1113.27 393.527C881.864 445.37 904.218 771.355 679.08 842.107C468.584 908.257 216.251 857.425 -11.3798 792.856C-141.987 764.516 -320.649 755.744 -320.649 755.744" stroke="url(#paint7_linear_154_756)" stroke-opacity="0.25" stroke-width="0.916977"/>
<path d="M1973.98 72.4079C1973.98 72.4079 1933.72 218.087 1863.72 283.512C1774.97 366.451 1684.76 367.22 1560.45 393.286C1397.27 427.499 1293.92 367.258 1131.34 403.684C904.33 454.544 926.26 774.351 705.395 843.763C498.895 908.659 245.147 847.099 22.6261 793.763C-106.744 772.454 -277.978 784.785 -277.978 784.785" stroke="url(#paint8_linear_154_756)" stroke-opacity="0.25" stroke-width="0.916977"/>
<path d="M1975.74 88.6926C1975.74 88.6926 1936.26 231.558 1867.61 295.718C1780.59 377.056 1692.12 377.81 1570.21 403.372C1410.2 436.924 1308.84 377.847 1149.41 413.568C926.789 463.447 948.296 777.076 731.704 845.146C529.199 908.789 274.037 836.5 56.6252 794.399C-71.507 780.12 -235.313 813.553 -235.313 813.553" stroke="url(#paint9_linear_154_756)" stroke-opacity="0.25" stroke-width="0.916977"/>
<path d="M1977.5 104.727C1977.5 104.727 1938.8 244.778 1871.5 307.675C1786.19 387.41 1699.48 388.149 1579.97 413.207C1423.11 446.098 1323.76 388.185 1167.47 423.203C949.241 472.098 970.324 779.55 758.005 846.279C559.496 908.668 302.919 825.651 90.6167 794.783C-36.278 787.536 -192.656 842.07 -192.656 842.07" stroke="url(#paint10_linear_154_756)" stroke-opacity="0.25" stroke-width="0.916977"/>
<path d="M1979.24 120.531C1979.24 120.531 1941.33 257.768 1875.39 319.401C1791.79 397.534 1706.82 398.258 1589.72 422.813C1436.02 455.043 1338.66 398.293 1185.52 432.607C971.685 480.52 992.344 781.793 784.299 847.182C589.785 908.317 331.794 814.572 124.601 794.938C-1.05658 794.722 -150.007 870.358 -150.007 870.358" stroke="url(#paint11_linear_154_756)" stroke-opacity="0.25" stroke-width="0.916977"/>
<path d="M1980.54 123.17C1980.54 123.17 1943.4 257.593 1878.81 317.962C1796.93 394.493 1713.71 395.203 1599.01 419.254C1448.47 450.823 1353.11 395.236 1203.11 428.847C993.672 475.777 1013.91 770.873 810.135 834.92C619.616 894.802 360.211 790.329 158.127 781.928C33.7077 788.743 -107.814 885.481 -107.814 885.481" stroke="url(#paint12_linear_154_756)" stroke-opacity="0.25" stroke-width="0.916977"/>
<path d="M1981.25 109.357C1981.25 109.357 1944.88 240.966 1881.65 300.071C1801.49 374.999 1720.01 375.694 1607.72 399.241C1460.33 430.149 1366.98 375.727 1220.13 408.633C1015.08 454.581 1034.89 743.499 835.39 806.205C648.867 864.833 388.048 749.632 191.073 752.465C67.8911 766.311 -66.2023 884.15 -66.2023 884.15" stroke="url(#paint13_linear_154_756)" stroke-opacity="0.25" stroke-width="0.916977"/>
<path d="M1981.96 95.5423C1981.96 95.5423 1946.38 224.337 1884.5 282.178C1806.06 355.505 1726.32 356.184 1616.44 379.228C1472.2 409.475 1380.85 356.216 1237.14 388.419C1036.49 433.384 1055.87 716.124 860.647 777.49C678.12 834.864 415.886 708.935 224.021 723.001C102.076 743.878 -24.589 882.819 -24.589 882.819" stroke="url(#paint14_linear_154_756)" stroke-opacity="0.25" stroke-width="0.916977"/>
<path d="M1982.67 81.7289C1982.67 81.7289 1947.87 207.71 1887.35 264.287C1810.62 336.011 1732.63 336.676 1625.15 359.216C1484.08 388.802 1394.72 336.707 1254.16 368.206C1057.9 412.188 1076.86 688.751 885.909 748.775C707.377 804.896 443.729 668.238 256.973 693.538C136.266 721.446 17.0286 881.489 17.0286 881.489" stroke="url(#paint15_linear_154_756)" stroke-opacity="0.25" stroke-width="0.916977"/>
<path d="M1983.39 67.9144C1983.39 67.9144 1949.36 191.081 1890.19 246.394C1815.19 316.516 1738.94 317.166 1633.87 339.203C1495.95 368.128 1408.59 317.196 1271.18 347.991C1079.31 390.991 1097.84 661.376 911.166 720.059C736.629 774.926 471.567 627.541 289.92 664.074C170.451 699.013 58.6418 880.158 58.6418 880.158" stroke="url(#paint16_linear_154_756)" stroke-opacity="0.25" stroke-width="0.916977"/>
<path d="M1984.09 54.0986C1984.09 54.0986 1950.85 174.451 1893.04 228.501C1819.75 297.02 1745.24 297.655 1642.58 319.188C1507.82 347.452 1422.46 297.684 1288.19 327.776C1100.71 369.792 1118.82 634 936.419 691.343C765.878 744.955 499.402 586.842 322.864 634.609C204.632 676.579 100.252 878.826 100.252 878.826" stroke="url(#paint17_linear_154_756)" stroke-opacity="0.25" stroke-width="0.916977"/>
<path d="M1984.82 40.2858C1984.82 40.2858 1952.35 157.824 1895.89 210.61C1824.32 277.527 1751.56 278.147 1651.3 299.177C1519.7 326.78 1436.34 278.175 1305.22 307.563C1122.13 348.597 1139.82 606.627 961.686 662.628C795.141 714.988 527.25 546.146 355.822 605.146C238.827 654.148 141.875 877.496 141.875 877.496" stroke="url(#paint18_linear_154_756)" stroke-opacity="0.25" stroke-width="0.916977"/>
<path d="M1985.53 26.4706C1985.53 26.4706 1953.84 141.195 1898.73 192.717C1828.88 258.032 1757.87 258.637 1660.01 279.163C1531.56 306.105 1450.21 258.664 1322.23 287.348C1143.53 327.399 1160.8 579.252 986.942 633.912C824.392 685.018 555.087 505.448 388.768 575.682C273.011 631.714 183.487 876.164 183.487 876.164" stroke="url(#paint19_linear_154_756)" stroke-opacity="0.25" stroke-width="0.916977"/>
<path d="M1986.24 12.6564C1986.24 12.6564 1955.33 124.566 1901.58 174.825C1833.44 238.538 1764.18 239.128 1668.72 259.15C1543.44 285.431 1464.08 239.153 1339.25 267.134C1164.94 306.203 1181.78 551.877 1012.2 605.197C853.644 655.048 582.925 464.75 421.716 546.218C307.196 609.282 225.1 874.834 225.1 874.834" stroke="url(#paint20_linear_154_756)" stroke-opacity="0.25" stroke-width="0.916977"/>
<path d="M1986.95 -1.15963C1986.95 -1.15963 1956.82 107.936 1904.42 156.931C1838 219.041 1770.48 219.617 1677.44 239.135C1555.3 264.755 1477.95 219.641 1356.26 246.918C1186.35 285.004 1202.77 524.501 1037.46 576.48C882.896 625.077 610.762 424.051 454.662 516.752C341.38 586.847 266.712 873.501 266.712 873.501" stroke="url(#paint21_linear_154_756)" stroke-opacity="0.25" stroke-width="0.916977"/>
<defs>
<linearGradient id="paint0_linear_154_756" x1="713.392" y1="869.131" x2="691.882" y2="-18.5364" gradientUnits="userSpaceOnUse">
<stop stop-color="#02D8F8"/>
<stop offset="1" stop-color="#0B2748" stop-opacity="0.8"/>
</linearGradient>
<linearGradient id="paint1_linear_154_756" x1="1162.76" y1="851.467" x2="1142.26" y2="5.51234" gradientUnits="userSpaceOnUse">
<stop stop-color="#02D8F8"/>
<stop offset="1" stop-color="#0B2748" stop-opacity="0.8"/>
</linearGradient>
<linearGradient id="paint2_linear_154_756" x1="734.784" y1="868.289" x2="713.723" y2="-0.870871" gradientUnits="userSpaceOnUse">
<stop stop-color="#02D8F8"/>
<stop offset="1" stop-color="#0B2748" stop-opacity="0.8"/>
</linearGradient>
<linearGradient id="paint3_linear_154_756" x1="756.187" y1="867.45" x2="735.569" y2="16.5762" gradientUnits="userSpaceOnUse">
<stop stop-color="#02D8F8"/>
<stop offset="1" stop-color="#0B2748" stop-opacity="0.8"/>
</linearGradient>
<linearGradient id="paint4_linear_154_756" x1="777.587" y1="866.609" x2="757.406" y2="33.7744" gradientUnits="userSpaceOnUse">
<stop stop-color="#02D8F8"/>
<stop offset="1" stop-color="#0B2748" stop-opacity="0.8"/>
</linearGradient>
<linearGradient id="paint5_linear_154_756" x1="798.981" y1="865.766" x2="779.231" y2="50.7018" gradientUnits="userSpaceOnUse">
<stop stop-color="#02D8F8"/>
<stop offset="1" stop-color="#0B2748" stop-opacity="0.8"/>
</linearGradient>
<linearGradient id="paint6_linear_154_756" x1="820.383" y1="864.925" x2="801.057" y2="67.3467" gradientUnits="userSpaceOnUse">
<stop stop-color="#02D8F8"/>
<stop offset="1" stop-color="#0B2748" stop-opacity="0.8"/>
</linearGradient>
<linearGradient id="paint7_linear_154_756" x1="841.781" y1="864.082" x2="822.872" y2="83.7008" gradientUnits="userSpaceOnUse">
<stop stop-color="#02D8F8"/>
<stop offset="1" stop-color="#0B2748" stop-opacity="0.8"/>
</linearGradient>
<linearGradient id="paint8_linear_154_756" x1="863.177" y1="863.242" x2="844.677" y2="99.7723" gradientUnits="userSpaceOnUse">
<stop stop-color="#02D8F8"/>
<stop offset="1" stop-color="#0B2748" stop-opacity="0.8"/>
</linearGradient>
<linearGradient id="paint9_linear_154_756" x1="884.575" y1="862.4" x2="866.478" y2="115.571" gradientUnits="userSpaceOnUse">
<stop stop-color="#02D8F8"/>
<stop offset="1" stop-color="#0B2748" stop-opacity="0.8"/>
</linearGradient>
<linearGradient id="paint10_linear_154_756" x1="905.974" y1="861.56" x2="888.275" y2="131.12" gradientUnits="userSpaceOnUse">
<stop stop-color="#02D8F8"/>
<stop offset="1" stop-color="#0B2748" stop-opacity="0.8"/>
</linearGradient>
<linearGradient id="paint11_linear_154_756" x1="927.374" y1="860.719" x2="910.066" y2="146.438" gradientUnits="userSpaceOnUse">
<stop stop-color="#02D8F8"/>
<stop offset="1" stop-color="#0B2748" stop-opacity="0.8"/>
</linearGradient>
<linearGradient id="paint12_linear_154_756" x1="948.776" y1="859.878" x2="931.541" y2="148.589" gradientUnits="userSpaceOnUse">
<stop stop-color="#02D8F8"/>
<stop offset="1" stop-color="#0B2748" stop-opacity="0.8"/>
</linearGradient>
<linearGradient id="paint13_linear_154_756" x1="970.172" y1="859.038" x2="952.61" y2="134.282" gradientUnits="userSpaceOnUse">
<stop stop-color="#02D8F8"/>
<stop offset="1" stop-color="#0B2748" stop-opacity="0.8"/>
</linearGradient>
<linearGradient id="paint14_linear_154_756" x1="991.57" y1="858.196" x2="973.682" y2="119.974" gradientUnits="userSpaceOnUse">
<stop stop-color="#02D8F8"/>
<stop offset="1" stop-color="#0B2748" stop-opacity="0.8"/>
</linearGradient>
<linearGradient id="paint15_linear_154_756" x1="1012.97" y1="857.356" x2="994.757" y2="105.667" gradientUnits="userSpaceOnUse">
<stop stop-color="#02D8F8"/>
<stop offset="1" stop-color="#0B2748" stop-opacity="0.8"/>
</linearGradient>
<linearGradient id="paint16_linear_154_756" x1="1034.37" y1="856.515" x2="1015.83" y2="91.3595" gradientUnits="userSpaceOnUse">
<stop stop-color="#02D8F8"/>
<stop offset="1" stop-color="#0B2748" stop-opacity="0.8"/>
</linearGradient>
<linearGradient id="paint17_linear_154_756" x1="1055.76" y1="855.672" x2="1036.9" y2="77.0504" gradientUnits="userSpaceOnUse">
<stop stop-color="#02D8F8"/>
<stop offset="1" stop-color="#0B2748" stop-opacity="0.8"/>
</linearGradient>
<linearGradient id="paint18_linear_154_756" x1="1077.17" y1="854.833" x2="1057.98" y2="62.7443" gradientUnits="userSpaceOnUse">
<stop stop-color="#02D8F8"/>
<stop offset="1" stop-color="#0B2748" stop-opacity="0.8"/>
</linearGradient>
<linearGradient id="paint19_linear_154_756" x1="1098.57" y1="853.991" x2="1079.05" y2="48.4358" gradientUnits="userSpaceOnUse">
<stop stop-color="#02D8F8"/>
<stop offset="1" stop-color="#0B2748" stop-opacity="0.8"/>
</linearGradient>
<linearGradient id="paint20_linear_154_756" x1="1119.96" y1="853.15" x2="1100.12" y2="34.1282" gradientUnits="userSpaceOnUse">
<stop stop-color="#02D8F8"/>
<stop offset="1" stop-color="#0B2748" stop-opacity="0.8"/>
</linearGradient>
<linearGradient id="paint21_linear_154_756" x1="1141.36" y1="852.307" x2="1121.19" y2="19.8189" gradientUnits="userSpaceOnUse">
<stop stop-color="#02D8F8"/>
<stop offset="1" stop-color="#0B2748" stop-opacity="0.8"/>
</linearGradient>
</defs>
</svg>
