<svg width="32" height="32" viewBox="0 0 32 32" fill="none" xmlns="http://www.w3.org/2000/svg">
<path d="M18.5813 9.45067V4.39733C14.172 4.244 9.75468 4.48266 5.37468 5.11333C3.76135 5.34533 2.42535 6.588 2.04935 8.20533C1.72802 9.584 1.49068 10.984 1.34002 12.3693C1.27068 13.0347 1.70935 13.6627 2.36935 13.8133C3.34935 14.036 4.00802 14.9173 4.01068 15.9987C4.00802 17.0867 3.34802 17.968 2.36935 18.1907C1.70935 18.3413 1.27068 18.9693 1.34002 19.6347C1.48935 21.0187 1.72802 22.4187 2.04935 23.7973C2.42535 25.4147 3.76135 26.6573 5.37468 26.8893C9.75468 27.52 14.172 27.7573 18.5813 27.6053V22.552C18.5813 21.816 19.1787 21.2187 19.9147 21.2187C20.6507 21.2187 21.248 21.816 21.248 22.552V27.4627C23.044 27.336 24.8373 27.144 26.6253 26.8867C28.2387 26.6547 29.5747 25.412 29.9507 23.7947C30.272 22.416 30.5094 21.016 30.66 19.6307C30.732 18.9653 30.2907 18.3373 29.6307 18.1867C28.6507 17.964 27.9907 17.0827 27.988 16.0013C27.9907 14.9133 28.6507 14.032 29.6307 13.8093C30.2427 13.6707 30.668 13.1253 30.668 12.5107C30.668 12.4627 30.6654 12.4147 30.66 12.3667C30.5107 10.9827 30.272 9.58267 29.9507 8.204C29.5747 6.58667 28.2387 5.344 26.6253 5.112C24.8387 4.85467 23.0453 4.66267 21.248 4.536V9.44933C21.248 10.1853 20.6507 10.7827 19.9147 10.7827C19.1787 10.7827 18.5813 10.1867 18.5813 9.45067ZM21.248 15.0747V16.9267C21.248 17.6627 20.6507 18.26 19.9147 18.26C19.1787 18.26 18.5813 17.6627 18.5813 16.9267V15.0747C18.5813 14.3387 19.1787 13.7413 19.9147 13.7413C20.6507 13.7413 21.248 14.3387 21.248 15.0747Z" fill="#F0B90B"/>
</svg>
