<svg width="32" height="32" viewBox="0 0 32 32" fill="none" xmlns="http://www.w3.org/2000/svg">
<path d="M32 15.9993C32 13.8279 31.0472 11.7793 29.4312 10.4919C29.618 8.32585 28.844 6.20382 27.3094 4.66672C25.7748 3.13229 23.6597 2.35506 21.6019 2.5901C18.9144 -0.823302 13.1082 -0.887404 10.4833 2.54336C6.16901 2.03055 2.0202 6.09565 2.58868 10.3798C-0.822184 13.0694 -0.887572 18.8799 2.54197 21.5081C2.35515 23.6742 3.12913 25.7962 4.66375 27.3333C6.19837 28.8677 8.31614 29.6449 10.3712 29.4099C13.0588 32.8233 18.865 32.8874 21.4899 29.4566C23.6517 29.6423 25.7734 28.8704 27.3094 27.3333C28.8427 25.7975 29.6167 23.6741 29.3845 21.6216C31.0472 20.222 32 18.1734 32 16.002V15.9993ZM10.6488 11.993C10.6568 10.2462 13.3097 10.2462 13.3177 11.993C13.3097 13.7398 10.6568 13.7398 10.6488 11.993ZM14.4279 20.7468C14.0169 21.3652 13.1829 21.5227 12.577 21.1168C11.9632 20.7081 11.7977 19.8788 12.2074 19.2645L17.5452 11.2518C17.9536 10.6388 18.7809 10.4706 19.3961 10.8819C20.0099 11.2905 20.1754 12.1199 19.7657 12.7342L14.4279 20.7468ZM19.9899 21.3411C18.2445 21.3331 18.2445 18.6782 19.9899 18.6702C21.7354 18.6782 21.7354 21.3331 19.9899 21.3411Z" fill="#F0B90B"/>
</svg>
